<?xml version="1.0" encoding="UTF-8" standalone="no"?>
<!DOCTYPE svg PUBLIC "-//W3C//DTD SVG 1.1//EN" "http://www.w3.org/Graphics/SVG/1.1/DTD/svg11.dtd">
<svg width="100%" height="100%" viewBox="0 0 3930 756" version="1.1" xmlns="http://www.w3.org/2000/svg" xmlns:xlink="http://www.w3.org/1999/xlink" xml:space="preserve" xmlns:serif="http://www.serif.com/" style="fill-rule:evenodd;clip-rule:evenodd;stroke-linejoin:round;stroke-miterlimit:2;">
    <g transform="matrix(1,0,0,1,-2197.196666,-1898.138173)">
        <g transform="matrix(4.166667,0,0,4.166667,2170.736287,-1714.730909)">
            <g transform="matrix(0.690682,0,0,0.747088,53.368761,203.34866)">
                <path d="M226.158,913.341L262.111,913.341L318.164,1060.068L279.201,1060.068L269.808,1032.821L218.645,1032.821L209.134,1060.068L170.065,1060.068L226.158,913.341ZM230.857,999.137L257.609,999.137L244.385,959.784L244.07,959.784L230.857,999.137Z" style="fill:white;fill-rule:nonzero;"/>
                <path d="M364.433,1106.309L327.711,1106.309L327.711,968.809L364.748,968.809L364.748,980.652C365.89,978.653 367.812,976.539 370.514,974.307C373.216,972.076 376.626,970.157 380.742,968.551C384.859,966.944 389.495,966.141 394.65,966.141C403.15,966.141 410.368,968.387 416.303,972.878C422.239,977.369 426.76,983.274 429.868,990.593C432.975,997.911 434.529,1005.878 434.529,1014.494C434.529,1023.11 432.852,1031.077 429.499,1038.395C426.145,1045.714 421.377,1051.6 415.196,1056.054C409.014,1060.509 401.673,1062.736 393.173,1062.736C387.342,1062.736 382.41,1061.682 378.377,1059.573C374.344,1057.465 371.19,1055.099 368.914,1052.477C366.637,1049.855 365.144,1047.824 364.433,1046.382L364.433,1106.309ZM398.176,1014.494C398.176,1011.238 397.456,1008.26 396.015,1005.561C394.574,1002.862 392.6,1000.711 390.092,999.106C387.584,997.501 384.735,996.698 381.544,996.698C378.277,996.698 375.383,997.505 372.863,999.119C370.343,1000.732 368.36,1002.889 366.915,1005.588C365.47,1008.287 364.748,1011.255 364.748,1014.494C364.748,1017.733 365.47,1020.701 366.915,1023.4C368.36,1026.099 370.343,1028.237 372.863,1029.814C375.383,1031.39 378.277,1032.178 381.544,1032.178C384.735,1032.178 387.584,1031.394 390.092,1029.827C392.6,1028.259 394.574,1026.125 396.015,1023.426C397.456,1020.727 398.176,1017.75 398.176,1014.494Z" style="fill:white;fill-rule:nonzero;"/>
                <path d="M485.762,1106.309L449.04,1106.309L449.04,968.809L486.077,968.809L486.077,980.652C487.219,978.653 489.141,976.539 491.843,974.307C494.545,972.076 497.955,970.157 502.071,968.551C506.188,966.944 510.824,966.141 515.979,966.141C524.479,966.141 531.697,968.387 537.632,972.878C543.568,977.369 548.089,983.274 551.197,990.593C554.304,997.911 555.858,1005.878 555.858,1014.494C555.858,1023.11 554.181,1031.077 550.828,1038.395C547.474,1045.714 542.706,1051.6 536.525,1056.054C530.343,1060.509 523.002,1062.736 514.502,1062.736C508.671,1062.736 503.739,1061.682 499.706,1059.573C495.673,1057.465 492.519,1055.099 490.243,1052.477C487.967,1049.855 486.473,1047.824 485.762,1046.382L485.762,1106.309ZM519.505,1014.494C519.505,1011.238 518.785,1008.26 517.344,1005.561C515.903,1002.862 513.929,1000.711 511.421,999.106C508.913,997.501 506.064,996.698 502.873,996.698C499.606,996.698 496.712,997.505 494.192,999.119C491.672,1000.732 489.689,1002.889 488.244,1005.588C486.799,1008.287 486.077,1011.255 486.077,1014.494C486.077,1017.733 486.799,1020.701 488.244,1023.4C489.689,1026.099 491.672,1028.237 494.192,1029.814C496.712,1031.39 499.606,1032.178 502.873,1032.178C506.064,1032.178 508.913,1031.394 511.421,1029.827C513.929,1028.259 515.903,1026.125 517.344,1023.426C518.785,1020.727 519.505,1017.75 519.505,1014.494Z" style="fill:white;fill-rule:nonzero;"/>
            </g>
            <g transform="matrix(0.928912,0,0,0.628096,291.61428,311.288526)">
                <path d="M178.092,914.521L245.772,914.521L245.772,954.586L205.222,954.586L205.222,982.184L245.592,982.184L245.592,1020.97L205.222,1020.97L205.222,1048.979L245.772,1048.979L245.772,1089.045L178.092,1089.045L178.092,914.521Z" style="fill:white;fill-rule:nonzero;"/>
                <path d="M314.796,1030.465L341.823,1089.045L311.33,1089.045L298.265,1059.34L285.15,1089.045L256.92,1089.045L283.93,1034.184L259.604,980.496L290.303,980.496L300.049,1004.648L310.431,980.496L338.111,980.496L314.796,1030.465Z" style="fill:white;fill-rule:nonzero;"/>
                <path d="M376.662,1144.046L349.357,1144.046L349.357,980.496L376.896,980.496L376.896,994.583C377.745,992.206 379.174,989.691 381.183,987.037C383.193,984.383 385.728,982.1 388.788,980.189C391.849,978.278 395.296,977.323 399.129,977.323C405.449,977.323 410.816,979.994 415.229,985.336C419.642,990.679 423.004,997.702 425.315,1006.407C427.626,1015.112 428.781,1024.588 428.781,1034.836C428.781,1045.085 427.534,1054.561 425.04,1063.266C422.547,1071.971 419.002,1078.972 414.406,1084.271C409.809,1089.569 404.351,1092.218 398.031,1092.218C393.696,1092.218 390.028,1090.964 387.03,1088.456C384.031,1085.948 381.686,1083.135 379.993,1080.016C378.301,1076.897 377.19,1074.48 376.662,1072.766L376.662,1144.046ZM401.751,1034.836C401.751,1030.964 401.215,1027.422 400.144,1024.212C399.073,1021.001 397.605,1018.442 395.74,1016.533C393.875,1014.624 391.757,1013.67 389.384,1013.67C386.955,1013.67 384.803,1014.629 382.93,1016.548C381.056,1018.468 379.582,1021.032 378.507,1024.243C377.433,1027.453 376.896,1030.984 376.896,1034.836C376.896,1038.689 377.433,1042.22 378.507,1045.43C379.582,1048.641 381.056,1051.183 382.93,1053.058C384.803,1054.934 386.955,1055.871 389.384,1055.871C391.757,1055.871 393.875,1054.939 395.74,1053.074C397.605,1051.209 399.073,1048.672 400.144,1045.461C401.215,1042.251 401.751,1038.709 401.751,1034.836Z" style="fill:white;fill-rule:nonzero;"/>
                <path d="M464.755,1089.045L437.135,1089.045L437.135,980.496L464.755,980.496L464.755,996.558L464.365,996.558C464.887,994.565 465.948,992.067 467.548,989.062C469.149,986.058 471.396,983.35 474.291,980.939C477.186,978.528 480.788,977.323 485.098,977.323C488.025,977.323 490.781,978.114 493.367,979.697C495.952,981.279 497.86,982.842 499.092,984.386L488.438,1022.247C487.755,1020.581 486.48,1018.889 484.612,1017.173C482.745,1015.457 480.419,1014.599 477.633,1014.599C474.538,1014.599 472.045,1015.777 470.152,1018.131C468.259,1020.485 466.886,1023.368 466.034,1026.778C465.182,1030.188 464.755,1033.475 464.755,1036.64L464.755,1089.045Z" style="fill:white;fill-rule:nonzero;"/>
                <path d="M525.761,1044.224C525.986,1047.142 526.682,1049.676 527.847,1051.826C529.013,1053.976 530.58,1055.648 532.549,1056.843C534.518,1058.038 536.807,1058.635 539.416,1058.635C542.018,1058.635 544.468,1058.307 546.763,1057.651C549.059,1056.995 551.112,1056.089 552.922,1054.933C554.732,1053.778 556.155,1052.485 557.19,1051.056L567.401,1080.244C566.273,1081.89 564.557,1083.636 562.252,1085.482C559.948,1087.328 556.805,1088.912 552.823,1090.235C548.841,1091.557 543.75,1092.218 537.551,1092.218C530.373,1092.218 523.925,1090.068 518.205,1085.768C512.485,1081.469 507.964,1074.963 504.641,1066.252C501.318,1057.541 499.657,1046.663 499.657,1033.618C499.657,1023.04 501.059,1013.499 503.865,1004.993C506.67,996.487 510.729,989.749 516.044,984.779C521.359,979.808 527.787,977.323 535.329,977.323C542.564,977.323 548.829,979.458 554.124,983.728C559.419,987.998 563.502,994.46 566.373,1003.112C569.245,1011.765 570.68,1022.697 570.68,1035.909C570.68,1036.614 570.667,1038.017 570.641,1040.118C570.615,1042.219 570.55,1043.587 570.446,1044.224L525.761,1044.224ZM544.681,1023.084C544.629,1020.194 544.252,1017.594 543.549,1015.283C542.846,1012.972 541.85,1011.158 540.56,1009.841C539.27,1008.523 537.666,1007.865 535.746,1007.865C533.924,1007.865 532.321,1008.479 530.935,1009.708C529.55,1010.938 528.461,1012.686 527.669,1014.953C526.877,1017.22 526.437,1019.93 526.35,1023.084L544.681,1023.084Z" style="fill:white;fill-rule:nonzero;"/>
                <path d="M612.527,977.323C617.011,977.323 621.114,977.932 624.835,979.15C628.555,980.368 631.65,981.715 634.118,983.191C636.587,984.667 638.135,985.805 638.765,986.607L630.125,1013.814C629.163,1012.66 627.352,1011.147 624.691,1009.275C622.029,1007.402 619.073,1006.466 615.82,1006.466C613.71,1006.466 611.954,1006.882 610.554,1007.714C609.153,1008.546 608.453,1009.961 608.453,1011.959C608.453,1013.935 609.268,1015.547 610.897,1016.793C612.527,1018.04 614.98,1019.15 618.258,1020.125C621.24,1021.102 624.365,1022.725 627.632,1024.994C630.9,1027.263 633.667,1030.655 635.933,1035.169C638.2,1039.684 639.333,1045.75 639.333,1053.367C639.333,1061.443 638.286,1068.029 636.19,1073.124C634.095,1078.219 631.369,1082.147 628.014,1084.908C624.658,1087.669 621.043,1089.577 617.167,1090.633C613.292,1091.69 609.597,1092.218 606.083,1092.218C600.849,1092.218 596.337,1091.443 592.546,1089.894C588.755,1088.344 585.727,1086.606 583.462,1084.677C581.197,1082.749 579.652,1081.258 578.827,1080.203L587.29,1049.862C588.643,1051.71 590.847,1053.832 593.901,1056.227C596.956,1058.623 600.117,1059.821 603.386,1059.821C606.309,1059.821 608.509,1059.266 609.984,1058.156C611.459,1057.046 612.196,1055.527 612.196,1053.599C612.196,1052.117 611.843,1050.879 611.138,1049.885C610.433,1048.892 609.371,1048.014 607.951,1047.252C606.532,1046.491 604.753,1045.764 602.616,1045.073C600.675,1044.381 598.539,1043.314 596.211,1041.872C593.882,1040.429 591.658,1038.399 589.539,1035.782C587.42,1033.164 585.681,1029.793 584.323,1025.669C582.965,1021.545 582.286,1016.544 582.286,1010.666C582.286,1003.109 583.732,996.872 586.625,991.954C589.518,987.037 593.27,983.369 597.882,980.951C602.494,978.532 607.375,977.323 612.527,977.323Z" style="fill:white;fill-rule:nonzero;"/>
                <path d="M681.314,977.323C685.798,977.323 689.901,977.932 693.622,979.15C697.342,980.368 700.437,981.715 702.905,983.191C705.374,984.667 706.922,985.805 707.552,986.607L698.912,1013.814C697.95,1012.66 696.139,1011.147 693.478,1009.275C690.816,1007.402 687.86,1006.466 684.607,1006.466C682.497,1006.466 680.741,1006.882 679.341,1007.714C677.94,1008.546 677.24,1009.961 677.24,1011.959C677.24,1013.935 678.055,1015.547 679.684,1016.793C681.314,1018.04 683.767,1019.15 687.045,1020.125C690.027,1021.102 693.152,1022.725 696.419,1024.994C699.687,1027.263 702.454,1030.655 704.72,1035.169C706.987,1039.684 708.12,1045.75 708.12,1053.367C708.12,1061.443 707.073,1068.029 704.977,1073.124C702.882,1078.219 700.156,1082.147 696.801,1084.908C693.445,1087.669 689.83,1089.577 685.954,1090.633C682.079,1091.69 678.384,1092.218 674.87,1092.218C669.636,1092.218 665.124,1091.443 661.333,1089.894C657.542,1088.344 654.514,1086.606 652.249,1084.677C649.984,1082.749 648.439,1081.258 647.614,1080.203L656.077,1049.862C657.43,1051.71 659.634,1053.832 662.688,1056.227C665.743,1058.623 668.904,1059.821 672.173,1059.821C675.096,1059.821 677.296,1059.266 678.771,1058.156C680.246,1057.046 680.983,1055.527 680.983,1053.599C680.983,1052.117 680.63,1050.879 679.925,1049.885C679.22,1048.892 678.158,1048.014 676.738,1047.252C675.319,1046.491 673.54,1045.764 671.403,1045.073C669.462,1044.381 667.326,1043.314 664.998,1041.872C662.669,1040.429 660.445,1038.399 658.326,1035.782C656.207,1033.164 654.468,1029.793 653.11,1025.669C651.752,1021.545 651.073,1016.544 651.073,1010.666C651.073,1003.109 652.519,996.872 655.412,991.954C658.305,987.037 662.057,983.369 666.669,980.951C671.281,978.532 676.162,977.323 681.314,977.323Z" style="fill:white;fill-rule:nonzero;"/>
            </g>
            <g transform="matrix(1,0,0,1,-415.067694,25.121655)">
                <g transform="matrix(0,0.983995,-0.983995,0,959.023009,112.893474)">
                    <path d="M833.095,386.717L925.259,546.349L740.932,546.349L833.095,386.717ZM833.095,437.53L784.937,520.942L881.253,520.942L833.095,437.53Z" style="fill:rgb(255,97,16);"/>
                </g>
                <g transform="matrix(0,0.803367,-0.803367,0,912.667257,742.969524)">
                    <path d="M236.114,495.876L272.24,558.448L199.987,558.448L236.114,495.876Z" style="fill:rgb(255,97,16);"/>
                </g>
                <g transform="matrix(0,0.803367,-0.803367,0,912.667257,742.969524)">
                    <path d="M236.114,495.876L272.24,558.448L199.987,558.448L236.114,495.876Z" style="fill:rgb(255,97,16);"/>
                </g>
            </g>
        </g>
    </g>
</svg>
